<?xml version="1.0" encoding="utf-8"?>
<svg width="24px" height="24px" viewBox="0 0 32 32" id="icon" xmlns="http://www.w3.org/2000/svg">
  <defs>
    <style>
      .cls-1 {
        fill: none;
      }
    </style>
  </defs>
  <path d="M 27.386 15.934 L 22.255 13.195 L 22.255 6.781 C 22.255 6.401 22.053 6.052 21.735 5.882 L 16.082 2.866 C 15.818 2.724 15.505 2.724 15.24 2.866 L 9.588 5.882 C 9.269 6.052 9.066 6.401 9.066 6.781 L 9.066 13.195 L 3.934 15.934 C 3.616 16.104 3.415 16.452 3.415 16.833 L 3.415 23.87 C 3.415 24.251 3.616 24.599 3.934 24.769 L 9.588 27.785 C 9.853 27.927 10.167 27.927 10.43 27.785 L 15.661 24.993 L 20.891 27.785 C 21.156 27.927 21.469 27.927 21.735 27.785 L 27.386 24.769 C 27.706 24.599 27.907 24.251 27.907 23.87 L 27.907 16.833 C 27.907 16.452 27.706 16.104 27.386 15.934 Z M 20.371 13.195 L 16.604 15.207 L 16.604 10.418 L 20.371 8.408 Z M 15.661 4.889 L 19.207 6.781 L 15.661 8.673 L 12.115 6.781 Z M 10.95 8.408 L 14.718 10.418 L 14.718 15.207 L 10.95 13.195 Z M 9.066 25.26 L 5.299 23.249 L 5.299 18.461 L 9.066 20.471 Z M 10.009 18.725 L 6.464 16.833 L 10.009 14.942 L 13.554 16.833 Z M 10.95 20.471 L 14.718 18.461 L 14.718 23.249 L 10.95 25.26 Z M 20.371 25.26 L 16.604 23.249 L 16.604 18.461 L 20.371 20.471 Z M 21.313 18.725 L 17.767 16.833 L 21.313 14.942 L 24.858 16.833 Z M 26.022 23.249 L 22.255 25.26 L 22.255 20.471 L 26.022 18.461 Z" style="fill: rgb(222, 223, 223);"/>
  <rect id="_Transparent_Rectangle_" data-name="&lt;Transparent Rectangle&gt;" class="cls-1" width="32" height="32"/>
</svg>